<mxfile host="65bd71144e">
    <diagram id="JcDQmpoDHLMt8iEKbiCN" name="Page-1">
        <mxGraphModel dx="2497" dy="960" grid="1" gridSize="10" guides="1" tooltips="1" connect="1" arrows="1" fold="1" page="1" pageScale="1" pageWidth="827" pageHeight="1169" math="0" shadow="0">
            <root>
                <mxCell id="0"/>
                <mxCell id="1" parent="0"/>
                <mxCell id="67" value="" style="rounded=0;whiteSpace=wrap;html=1;fillColor=#dae8fc;strokeColor=#6c8ebf;" vertex="1" parent="1">
                    <mxGeometry x="-440" y="20" width="1250" height="1400" as="geometry"/>
                </mxCell>
                <mxCell id="48" value="ALT" style="shape=umlFrame;whiteSpace=wrap;html=1;width=80;height=30;boundedLbl=1;verticalAlign=middle;align=left;spacingLeft=5;" vertex="1" parent="1">
                    <mxGeometry x="-250" y="960" width="960" height="290" as="geometry"/>
                </mxCell>
                <mxCell id="2" value="&lt;b&gt;sd &lt;/b&gt;ajout candidat" style="shape=umlFrame;whiteSpace=wrap;html=1;width=120;height=30;boundedLbl=1;verticalAlign=middle;align=left;spacingLeft=5;" vertex="1" parent="1">
                    <mxGeometry x="-420" y="50" width="1210" height="1360" as="geometry"/>
                </mxCell>
                <mxCell id="32" value="ALT" style="shape=umlFrame;whiteSpace=wrap;html=1;width=120;height=30;boundedLbl=1;verticalAlign=middle;align=left;spacingLeft=5;" vertex="1" parent="1">
                    <mxGeometry x="-280" y="800" width="1030" height="510" as="geometry"/>
                </mxCell>
                <mxCell id="3" value="Actor" style="shape=umlActor;verticalLabelPosition=bottom;verticalAlign=top;html=1;outlineConnect=0;" vertex="1" parent="1">
                    <mxGeometry x="-170" y="120" width="30" height="60" as="geometry"/>
                </mxCell>
                <mxCell id="4" value="" style="html=1;points=[];perimeter=orthogonalPerimeter;" vertex="1" parent="1">
                    <mxGeometry x="-160" y="200" width="10" height="750" as="geometry"/>
                </mxCell>
                <mxCell id="5" value="IHM&lt;span style=&quot;color: rgba(0, 0, 0, 0); font-family: monospace; font-size: 0px; text-align: start;&quot;&gt;%3CmxGraphModel%3E%3Croot%3E%3CmxCell%20id%3D%220%22%2F%3E%3CmxCell%20id%3D%221%22%20parent%3D%220%22%2F%3E%3CmxCell%20id%3D%222%22%20value%3D%22Utilisateur%20existant%22%20style%3D%22html%3D1%3BverticalAlign%3Dbottom%3BendArrow%3Dopen%3Bdashed%3D1%3BendSize%3D8%3BexitX%3D0.06%3BexitY%3D0.673%3BexitDx%3D0%3BexitDy%3D0%3BexitPerimeter%3D0%3BentryX%3D1.106%3BentryY%3D0.371%3BentryDx%3D0%3BentryDy%3D0%3BentryPerimeter%3D0%3B%22%20edge%3D%221%22%20parent%3D%221%22%3E%3CmxGeometry%20x%3D%220.1146%22%20y%3D%22-1%22%20relative%3D%221%22%20as%3D%22geometry%22%3E%3CmxPoint%20x%3D%22675%22%20y%3D%22710%22%20as%3D%22sourcePoint%22%2F%3E%3CmxPoint%20x%3D%22436.05999999999995%22%20y%3D%22711.1300000000001%22%20as%3D%22targetPoint%22%2F%3E%3CmxPoint%20as%3D%22offset%22%2F%3E%3C%2FmxGeometry%3E%3C%2FmxCell%3E%3C%2Froot%3E%3C%2FmxGraphModel%3E&lt;/span&gt;" style="shape=umlLifeline;perimeter=lifelinePerimeter;whiteSpace=wrap;html=1;container=1;collapsible=0;recursiveResize=0;outlineConnect=0;" vertex="1" parent="1">
                    <mxGeometry x="20" y="140" width="100" height="1170" as="geometry"/>
                </mxCell>
                <mxCell id="15" value="" style="html=1;points=[];perimeter=orthogonalPerimeter;" vertex="1" parent="5">
                    <mxGeometry x="45" y="400" width="10" height="30" as="geometry"/>
                </mxCell>
                <mxCell id="16" value="" style="html=1;points=[];perimeter=orthogonalPerimeter;" vertex="1" parent="5">
                    <mxGeometry x="45" y="445" width="10" height="30" as="geometry"/>
                </mxCell>
                <mxCell id="17" value="" style="html=1;points=[];perimeter=orthogonalPerimeter;" vertex="1" parent="5">
                    <mxGeometry x="45" y="500" width="10" height="30" as="geometry"/>
                </mxCell>
                <mxCell id="24" value="" style="html=1;points=[];perimeter=orthogonalPerimeter;" vertex="1" parent="5">
                    <mxGeometry x="45" y="540" width="10" height="30" as="geometry"/>
                </mxCell>
                <mxCell id="25" value="" style="html=1;points=[];perimeter=orthogonalPerimeter;" vertex="1" parent="5">
                    <mxGeometry x="45" y="590" width="10" height="50" as="geometry"/>
                </mxCell>
                <mxCell id="18" value="saisir ID candidat" style="html=1;verticalAlign=bottom;labelBackgroundColor=none;endArrow=open;endFill=0;exitX=1.171;exitY=0.457;exitDx=0;exitDy=0;exitPerimeter=0;" edge="1" parent="5" source="4">
                    <mxGeometry width="160" relative="1" as="geometry">
                        <mxPoint x="-115" y="400" as="sourcePoint"/>
                        <mxPoint x="45" y="400" as="targetPoint"/>
                    </mxGeometry>
                </mxCell>
                <mxCell id="19" value="saisir Nom + prenom candidat" style="html=1;verticalAlign=bottom;labelBackgroundColor=none;endArrow=open;endFill=0;exitX=0.943;exitY=0.521;exitDx=0;exitDy=0;exitPerimeter=0;" edge="1" parent="5" source="4">
                    <mxGeometry width="160" relative="1" as="geometry">
                        <mxPoint x="-115" y="450" as="sourcePoint"/>
                        <mxPoint x="45" y="450" as="targetPoint"/>
                    </mxGeometry>
                </mxCell>
                <mxCell id="20" value="saisir Adresse candidat" style="html=1;verticalAlign=bottom;labelBackgroundColor=none;endArrow=open;endFill=0;exitX=1.171;exitY=0.602;exitDx=0;exitDy=0;exitPerimeter=0;" edge="1" parent="5" source="4">
                    <mxGeometry width="160" relative="1" as="geometry">
                        <mxPoint x="-115" y="510" as="sourcePoint"/>
                        <mxPoint x="45" y="510" as="targetPoint"/>
                    </mxGeometry>
                </mxCell>
                <mxCell id="22" value="saisir type de permis&amp;nbsp;" style="html=1;verticalAlign=bottom;labelBackgroundColor=none;endArrow=open;endFill=0;exitX=1.286;exitY=0.718;exitDx=0;exitDy=0;exitPerimeter=0;" edge="1" parent="5" source="4">
                    <mxGeometry width="160" relative="1" as="geometry">
                        <mxPoint x="-115" y="600" as="sourcePoint"/>
                        <mxPoint x="45" y="600" as="targetPoint"/>
                    </mxGeometry>
                </mxCell>
                <mxCell id="36" value="" style="html=1;points=[];perimeter=orthogonalPerimeter;" vertex="1" parent="5">
                    <mxGeometry x="45" y="690" width="10" height="30" as="geometry"/>
                </mxCell>
                <mxCell id="6" value="Controleur" style="shape=umlLifeline;perimeter=lifelinePerimeter;whiteSpace=wrap;html=1;container=1;collapsible=0;recursiveResize=0;outlineConnect=0;" vertex="1" parent="1">
                    <mxGeometry x="314" y="140" width="100" height="1160" as="geometry"/>
                </mxCell>
                <mxCell id="29" value="" style="html=1;points=[];perimeter=orthogonalPerimeter;" vertex="1" parent="6">
                    <mxGeometry x="45" y="620" width="10" height="40" as="geometry"/>
                </mxCell>
                <mxCell id="30" style="edgeStyle=none;html=1;entryX=1.386;entryY=0.711;entryDx=0;entryDy=0;entryPerimeter=0;" edge="1" parent="6" source="29" target="29">
                    <mxGeometry relative="1" as="geometry"/>
                </mxCell>
                <mxCell id="34" value="" style="html=1;points=[];perimeter=orthogonalPerimeter;" vertex="1" parent="6">
                    <mxGeometry x="45" y="680" width="10" height="40" as="geometry"/>
                </mxCell>
                <mxCell id="35" value="informations non Valide" style="html=1;verticalAlign=bottom;endArrow=open;dashed=1;endSize=8;" edge="1" parent="6">
                    <mxGeometry relative="1" as="geometry">
                        <mxPoint x="45" y="690" as="sourcePoint"/>
                        <mxPoint x="-234" y="690" as="targetPoint"/>
                        <mxPoint as="offset"/>
                    </mxGeometry>
                </mxCell>
                <mxCell id="41" value="" style="html=1;points=[];perimeter=orthogonalPerimeter;" vertex="1" parent="6">
                    <mxGeometry x="45" y="780" width="10" height="40" as="geometry"/>
                </mxCell>
                <mxCell id="7" value="Base de donnees" style="shape=umlLifeline;perimeter=lifelinePerimeter;whiteSpace=wrap;html=1;container=1;collapsible=0;recursiveResize=0;outlineConnect=0;" vertex="1" parent="1">
                    <mxGeometry x="590" y="140" width="100" height="1150" as="geometry"/>
                </mxCell>
                <mxCell id="45" value="" style="html=1;points=[];perimeter=orthogonalPerimeter;" vertex="1" parent="7">
                    <mxGeometry x="45" y="784.5" width="10" height="31" as="geometry"/>
                </mxCell>
                <mxCell id="46" style="edgeStyle=none;html=1;entryX=0.96;entryY=0.835;entryDx=0;entryDy=0;entryPerimeter=0;" edge="1" parent="7" source="45" target="45">
                    <mxGeometry relative="1" as="geometry"/>
                </mxCell>
                <mxCell id="10" value="" style="html=1;points=[];perimeter=orthogonalPerimeter;" vertex="1" parent="1">
                    <mxGeometry x="65" y="480" width="10" height="30" as="geometry"/>
                </mxCell>
                <mxCell id="11" value="interface d'ajout" style="html=1;verticalAlign=bottom;endArrow=open;dashed=1;endSize=8;entryX=1.286;entryY=0.414;entryDx=0;entryDy=0;entryPerimeter=0;" edge="1" parent="1" target="4">
                    <mxGeometry x="-0.131" relative="1" as="geometry">
                        <mxPoint x="60" y="510" as="sourcePoint"/>
                        <mxPoint x="-20" y="510" as="targetPoint"/>
                        <mxPoint as="offset"/>
                    </mxGeometry>
                </mxCell>
                <mxCell id="13" value="" style="html=1;verticalAlign=bottom;labelBackgroundColor=none;endArrow=block;endFill=1;entryX=0.043;entryY=0.071;entryDx=0;entryDy=0;entryPerimeter=0;exitX=1.286;exitY=0.379;exitDx=0;exitDy=0;exitPerimeter=0;" edge="1" parent="1" source="4" target="10">
                    <mxGeometry width="160" relative="1" as="geometry">
                        <mxPoint x="-150" y="480" as="sourcePoint"/>
                        <mxPoint x="10" y="480" as="targetPoint"/>
                    </mxGeometry>
                </mxCell>
                <mxCell id="14" value="Ajouter candidat" style="edgeLabel;html=1;align=center;verticalAlign=middle;resizable=0;points=[];" vertex="1" connectable="0" parent="13">
                    <mxGeometry x="0.3536" y="1" relative="1" as="geometry">
                        <mxPoint x="-27" y="-12" as="offset"/>
                    </mxGeometry>
                </mxCell>
                <mxCell id="21" value="saisir DateNaiss candidat" style="html=1;verticalAlign=bottom;labelBackgroundColor=none;endArrow=open;endFill=0;" edge="1" parent="1">
                    <mxGeometry width="160" relative="1" as="geometry">
                        <mxPoint x="-155" y="690" as="sourcePoint"/>
                        <mxPoint x="65" y="690" as="targetPoint"/>
                        <mxPoint as="offset"/>
                    </mxGeometry>
                </mxCell>
                <mxCell id="26" value="&amp;nbsp;informations candidat" style="html=1;verticalAlign=bottom;labelBackgroundColor=none;endArrow=open;endFill=0;exitX=1.4;exitY=0.748;exitDx=0;exitDy=0;exitPerimeter=0;entryX=0.129;entryY=0.282;entryDx=0;entryDy=0;entryPerimeter=0;" edge="1" parent="1" target="29">
                    <mxGeometry width="160" relative="1" as="geometry">
                        <mxPoint x="75" y="771" as="sourcePoint"/>
                        <mxPoint x="281" y="770" as="targetPoint"/>
                    </mxGeometry>
                </mxCell>
                <mxCell id="31" value="verification" style="text;align=center;fontStyle=0;verticalAlign=middle;spacingLeft=3;spacingRight=3;strokeColor=none;rotatable=0;points=[[0,0.5],[1,0.5]];portConstraint=eastwest;" vertex="1" parent="1">
                    <mxGeometry x="400" y="770" width="80" height="26" as="geometry"/>
                </mxCell>
                <mxCell id="33" value="" style="html=1;points=[];perimeter=orthogonalPerimeter;" vertex="1" parent="1">
                    <mxGeometry x="-160" y="950" width="10" height="530" as="geometry"/>
                </mxCell>
                <mxCell id="37" value="message d'erreur" style="html=1;verticalAlign=bottom;endArrow=open;dashed=1;endSize=8;" edge="1" parent="1">
                    <mxGeometry relative="1" as="geometry">
                        <mxPoint x="65" y="850" as="sourcePoint"/>
                        <mxPoint x="-150" y="850" as="targetPoint"/>
                    </mxGeometry>
                </mxCell>
                <mxCell id="40" value="" style="endArrow=none;dashed=1;html=1;exitX=-0.002;exitY=0.205;exitDx=0;exitDy=0;exitPerimeter=0;entryX=1;entryY=0.201;entryDx=0;entryDy=0;entryPerimeter=0;" edge="1" parent="1" source="32" target="32">
                    <mxGeometry width="50" height="50" relative="1" as="geometry">
                        <mxPoint x="-260" y="904" as="sourcePoint"/>
                        <mxPoint x="720" y="904" as="targetPoint"/>
                    </mxGeometry>
                </mxCell>
                <mxCell id="42" value="" style="html=1;verticalAlign=bottom;labelBackgroundColor=none;endArrow=block;endFill=1;exitX=0.94;exitY=0.746;exitDx=0;exitDy=0;exitPerimeter=0;" edge="1" parent="1" source="4">
                    <mxGeometry width="160" relative="1" as="geometry">
                        <mxPoint x="-95" y="760" as="sourcePoint"/>
                        <mxPoint x="65" y="760" as="targetPoint"/>
                    </mxGeometry>
                </mxCell>
                <mxCell id="43" value="Valider informations" style="edgeLabel;html=1;align=center;verticalAlign=middle;resizable=0;points=[];" vertex="1" connectable="0" parent="42">
                    <mxGeometry x="0.1725" y="2" relative="1" as="geometry">
                        <mxPoint x="-4" y="-8" as="offset"/>
                    </mxGeometry>
                </mxCell>
                <mxCell id="44" value="informations candidat" style="html=1;verticalAlign=bottom;labelBackgroundColor=none;endArrow=open;endFill=0;exitX=1.28;exitY=0.32;exitDx=0;exitDy=0;exitPerimeter=0;" edge="1" parent="1" source="41" target="45">
                    <mxGeometry width="160" relative="1" as="geometry">
                        <mxPoint x="430" y="949" as="sourcePoint"/>
                        <mxPoint x="590" y="949" as="targetPoint"/>
                    </mxGeometry>
                </mxCell>
                <mxCell id="47" value="verification" style="text;align=center;fontStyle=0;verticalAlign=middle;spacingLeft=3;spacingRight=3;strokeColor=none;rotatable=0;points=[[0,0.5],[1,0.5]];portConstraint=eastwest;" vertex="1" parent="1">
                    <mxGeometry x="670" y="930" width="80" height="26" as="geometry"/>
                </mxCell>
                <mxCell id="51" value="" style="html=1;points=[];perimeter=orthogonalPerimeter;" vertex="1" parent="1">
                    <mxGeometry x="635" y="970" width="10" height="30" as="geometry"/>
                </mxCell>
                <mxCell id="52" value="Insertion reussie" style="html=1;verticalAlign=bottom;endArrow=open;dashed=1;endSize=8;entryX=1.36;entryY=0.251;entryDx=0;entryDy=0;entryPerimeter=0;" edge="1" parent="1" target="63">
                    <mxGeometry relative="1" as="geometry">
                        <mxPoint x="635" y="1070" as="sourcePoint"/>
                        <mxPoint x="555" y="1070" as="targetPoint"/>
                        <mxPoint as="offset"/>
                    </mxGeometry>
                </mxCell>
                <mxCell id="53" value="iinformation&amp;nbsp;erroné" style="html=1;verticalAlign=bottom;endArrow=open;dashed=1;endSize=8;entryX=1.12;entryY=0.429;entryDx=0;entryDy=0;entryPerimeter=0;" edge="1" parent="1" target="54">
                    <mxGeometry relative="1" as="geometry">
                        <mxPoint x="635" y="980" as="sourcePoint"/>
                        <mxPoint x="530" y="980" as="targetPoint"/>
                    </mxGeometry>
                </mxCell>
                <mxCell id="54" value="" style="html=1;points=[];perimeter=orthogonalPerimeter;" vertex="1" parent="1">
                    <mxGeometry x="359" y="965" width="10" height="35" as="geometry"/>
                </mxCell>
                <mxCell id="55" value="iinformation&amp;nbsp;erroné" style="html=1;verticalAlign=bottom;endArrow=open;dashed=1;endSize=8;entryX=1.32;entryY=0.294;entryDx=0;entryDy=0;entryPerimeter=0;" edge="1" parent="1" target="56">
                    <mxGeometry relative="1" as="geometry">
                        <mxPoint x="359" y="990" as="sourcePoint"/>
                        <mxPoint x="76" y="993" as="targetPoint"/>
                    </mxGeometry>
                </mxCell>
                <mxCell id="56" value="" style="html=1;points=[];perimeter=orthogonalPerimeter;" vertex="1" parent="1">
                    <mxGeometry x="65" y="980" width="10" height="29.98" as="geometry"/>
                </mxCell>
                <mxCell id="57" value="message d'erreur" style="html=1;verticalAlign=bottom;endArrow=open;dashed=1;endSize=8;" edge="1" parent="1">
                    <mxGeometry relative="1" as="geometry">
                        <mxPoint x="65" y="999" as="sourcePoint"/>
                        <mxPoint x="-150" y="999" as="targetPoint"/>
                    </mxGeometry>
                </mxCell>
                <mxCell id="59" value="" style="endArrow=none;dashed=1;html=1;exitX=0;exitY=0.284;exitDx=0;exitDy=0;exitPerimeter=0;entryX=1.004;entryY=0.287;entryDx=0;entryDy=0;entryPerimeter=0;" edge="1" parent="1" source="48" target="48">
                    <mxGeometry width="50" height="50" relative="1" as="geometry">
                        <mxPoint x="510" y="1075" as="sourcePoint"/>
                        <mxPoint x="630" y="1040" as="targetPoint"/>
                    </mxGeometry>
                </mxCell>
                <mxCell id="60" value="" style="html=1;points=[];perimeter=orthogonalPerimeter;" vertex="1" parent="1">
                    <mxGeometry x="635" y="1050" width="10" height="30" as="geometry"/>
                </mxCell>
                <mxCell id="61" value="insertion" style="text;align=center;fontStyle=0;verticalAlign=middle;spacingLeft=3;spacingRight=3;strokeColor=none;rotatable=0;points=[[0,0.5],[1,0.5]];portConstraint=eastwest;" vertex="1" parent="1">
                    <mxGeometry x="670" y="1054" width="50" height="26" as="geometry"/>
                </mxCell>
                <mxCell id="62" style="edgeStyle=none;html=1;entryX=1.2;entryY=0.76;entryDx=0;entryDy=0;entryPerimeter=0;" edge="1" parent="1" source="60" target="60">
                    <mxGeometry relative="1" as="geometry"/>
                </mxCell>
                <mxCell id="63" value="" style="html=1;points=[];perimeter=orthogonalPerimeter;" vertex="1" parent="1">
                    <mxGeometry x="359" y="1060" width="10" height="35" as="geometry"/>
                </mxCell>
                <mxCell id="64" value="" style="html=1;points=[];perimeter=orthogonalPerimeter;" vertex="1" parent="1">
                    <mxGeometry x="65" y="1080" width="10" height="35" as="geometry"/>
                </mxCell>
                <mxCell id="65" value="Insertion reussie" style="html=1;verticalAlign=bottom;endArrow=open;dashed=1;endSize=8;entryX=1;entryY=0.366;entryDx=0;entryDy=0;entryPerimeter=0;" edge="1" parent="1" target="64">
                    <mxGeometry relative="1" as="geometry">
                        <mxPoint x="361.2" y="1091.21" as="sourcePoint"/>
                        <mxPoint x="98.7999999999999" y="1089.9950000000001" as="targetPoint"/>
                        <mxPoint as="offset"/>
                    </mxGeometry>
                </mxCell>
                <mxCell id="66" value="Candidat Ajouté" style="html=1;verticalAlign=bottom;endArrow=open;dashed=1;endSize=8;entryX=1.1;entryY=0.289;entryDx=0;entryDy=0;entryPerimeter=0;" edge="1" parent="1" target="33">
                    <mxGeometry relative="1" as="geometry">
                        <mxPoint x="64.99999999999983" y="1104.2" as="sourcePoint"/>
                        <mxPoint x="-130" y="1106" as="targetPoint"/>
                        <mxPoint as="offset"/>
                    </mxGeometry>
                </mxCell>
                <mxCell id="8" value="Ref authentification" style="shape=umlFrame;whiteSpace=wrap;html=1;width=120;height=30;boundedLbl=1;verticalAlign=middle;align=left;spacingLeft=5;" vertex="1" parent="1">
                    <mxGeometry x="-230" y="270" width="930" height="180" as="geometry"/>
                </mxCell>
            </root>
        </mxGraphModel>
    </diagram>
</mxfile>